<svg xmlns="http://www.w3.org/2000/svg" version="1.1" xmlns:xlink="http://www.w3.org/1999/xlink" xmlns:svgjs="http://svgjs.dev/svgjs" width="1440" height="560" preserveAspectRatio="none" viewBox="0 0 1440 560"><g clip-path="url(&quot;#SvgjsClipPath1166&quot;)" fill="none"><rect width="1440" height="560" x="0" y="0" fill="#0e2a47"></rect><circle r="93.335" cx="37.78" cy="-20.45" stroke="#365aa3" stroke-opacity="0.25" stroke-width="2"></circle><circle r="93.335" cx="324.75" cy="375.42" stroke="#365aa3" stroke-opacity="0.25" stroke-width="2"></circle><circle r="93.335" cx="803.97" cy="800.28" stroke="#365aa3" stroke-opacity="0.25" stroke-width="2"></circle><circle r="52.94" cx="748.5" cy="146.38" stroke="#365aa3" stroke-opacity="0.25" stroke-width="2"></circle><circle r="140.775" cx="1356.52" cy="151.12" stroke="#365aa3" stroke-opacity="0.25" stroke-width="2"></circle><circle r="171.72" cx="169.34" cy="51.4" stroke="#365aa3" stroke-opacity="0.25" stroke-width="2"></circle><circle r="133.485" cx="735.3" cy="45.51" stroke="#365aa3" stroke-opacity="0.25" stroke-width="2"></circle><circle r="67.03" cx="495.35" cy="58.49" stroke="#365aa3" stroke-opacity="0.25" stroke-width="2"></circle><circle r="84.79" cx="1016.02" cy="146.44" stroke="#365aa3" stroke-opacity="0.25" stroke-width="2"></circle><circle r="164.445" cx="315.46" cy="480.35" stroke="#365aa3" stroke-opacity="0.25" stroke-width="2"></circle><circle r="128.225" cx="1205.91" cy="430.87" stroke="#365aa3" stroke-opacity="0.25" stroke-width="2"></circle><circle r="52.03" cx="53.79" cy="320.76" stroke="#365aa3" stroke-opacity="0.25" stroke-width="2"></circle><circle r="123.82" cx="1280.67" cy="187.96" stroke="#365aa3" stroke-opacity="0.25" stroke-width="2"></circle><circle r="110.875" cx="643.48" cy="395.42" stroke="#365aa3" stroke-opacity="0.25" stroke-width="2"></circle><circle r="55.08" cx="317.56" cy="508.91" stroke="#365aa3" stroke-opacity="0.25" stroke-width="2"></circle><circle r="165.45" cx="747.01" cy="346.69" stroke="#365aa3" stroke-opacity="0.25" stroke-width="2"></circle><circle r="83.48" cx="256.75" cy="208.01" stroke="#365aa3" stroke-opacity="0.25" stroke-width="2"></circle><circle r="181.22" cx="1007.71" cy="178.06" stroke="#365aa3" stroke-opacity="0.25" stroke-width="2"></circle><circle r="63.145" cx="432.1" cy="157.52" stroke="#365aa3" stroke-opacity="0.25" stroke-width="2"></circle><circle r="160.32" cx="670.67" cy="314.46" stroke="#365aa3" stroke-opacity="0.25" stroke-width="2"></circle><circle r="127.475" cx="300.04" cy="542.24" stroke="#365aa3" stroke-opacity="0.25" stroke-width="2"></circle><circle r="129.245" cx="200.05" cy="136.1" stroke="#365aa3" stroke-opacity="0.25" stroke-width="2"></circle><circle r="113.575" cx="608.31" cy="287.85" stroke="#365aa3" stroke-opacity="0.25" stroke-width="2"></circle><circle r="85.42" cx="1304.99" cy="344.42" stroke="#365aa3" stroke-opacity="0.25" stroke-width="2"></circle><circle r="109.33" cx="1240.76" cy="36.76" stroke="#365aa3" stroke-opacity="0.25" stroke-width="2"></circle><circle r="76.51" cx="104.09" cy="146.09" stroke="#365aa3" stroke-opacity="0.25" stroke-width="2"></circle><circle r="71.84" cx="1250.06" cy="455.39" stroke="#365aa3" stroke-opacity="0.25" stroke-width="2"></circle><circle r="173.515" cx="895.45" cy="213.25" stroke="#365aa3" stroke-opacity="0.25" stroke-width="2"></circle><circle r="64.225" cx="233.24" cy="172.61" stroke="#365aa3" stroke-opacity="0.25" stroke-width="2"></circle><circle r="142.815" cx="913.32" cy="238.41" stroke="#365aa3" stroke-opacity="0.25" stroke-width="2"></circle></g><defs><clipPath id="SvgjsClipPath1166"><rect width="1440" height="560" x="0" y="0"></rect></clipPath></defs></svg>